<svg width="113" height="113" viewBox="0 0 113 113" fill="none" xmlns="http://www.w3.org/2000/svg">
<path d="M24.2809 0.351499C37.5194 0.0364994 50.8679 0.31148 64.3229 0.20648C86.2679 -0.0835202 112.273 -3.06349 112.303 27.7365C112.323 48.4815 112.923 70.9165 111.558 91.6565C110.753 103.841 99.6079 111.692 87.6929 112.122C84.6179 112.702 78.0579 112.546 74.7879 112.456C56.8979 111.966 38.3044 113.411 20.5509 111.531C9.59692 110.371 1.34442 100.106 0.725421 89.3915C-0.209079 73.2015 0.39491 56.4015 0.12691 40.1415C-0.51859 21.0515 0.433903 3.1665 24.2809 0.351499Z" fill="#282D3B"/>
<path d="M64.738 35.9716C73.388 32.4816 82.598 33.7016 91.443 35.9116C91.318 38.8316 91.493 42.3916 90.173 44.8816C88.863 45.3716 88.878 45.2917 87.453 45.2417C83.318 44.5567 78.683 44.5867 74.458 44.4917C76.033 44.2317 81.773 44.3616 82.328 43.9466C78.448 42.5416 72.893 43.2216 68.958 44.4116C64.223 49.1416 66.543 48.9416 64.398 52.9016C62.273 54.2966 59.393 63.9916 57.683 66.6716L55.493 67.0116C52.128 64.8566 49.613 63.9916 47.353 67.4816L46.678 67.5416C49.153 61.4866 51.673 55.4466 54.233 49.4216C56.513 44.1866 59.103 38.1866 64.738 35.9716Z" fill="#608ABF"/>
<path d="M64.738 35.9716C73.388 32.4816 82.5981 33.7016 91.4431 35.9116C91.3181 38.8316 91.493 42.3916 90.173 44.8816C88.863 45.3716 88.8781 45.2917 87.4531 45.2417L88.7581 44.3266C89.5981 42.7066 89.5481 39.1367 89.7781 37.1267C84.3981 35.8017 78.578 34.0916 72.993 34.6716C70.038 34.9816 67.753 36.1616 64.738 35.9716Z" fill="#65C6EC"/>
<path d="M37.2104 34.9565C41.1149 34.8415 45.358 34.9215 49.288 34.9165C49.428 40.5115 50.008 48.8615 48.478 54.0065C46.538 59.2765 42.36 70.7765 37.3895 73.0315C38.1385 70.9115 38.1035 70.9515 38.2005 68.6865C37.6715 65.9165 38.3035 60.9915 37.3895 59.2815L37.2104 34.9565Z" fill="#565A99"/>
<path d="M38.2004 68.6866C39.1314 64.1916 38.0474 63.6716 39.6529 57.8466C40.7849 59.7666 40.8929 60.0316 42.9434 60.3616C46.7079 58.9516 44.3479 57.1166 48.4779 54.0066C46.5379 59.2766 42.3599 70.7766 37.3894 73.0316C38.1384 70.9116 38.1034 70.9516 38.2004 68.6866Z" fill="#383D58"/>
<path d="M46.678 67.5417L47.353 67.4817C49.613 63.9917 52.128 64.8566 55.493 67.0116L57.683 66.6717C56.278 70.4867 54.113 75.5216 52.143 79.1466C51.548 81.2816 51.178 82.0217 50.218 84.0567L44.668 97.0866C41.8445 97.1416 37.076 97.5317 34.605 96.8467L34.052 96.0367C34.1555 95.8017 34.777 94.3467 34.888 94.1617C37.007 88.7067 43.9645 72.4617 46.678 67.5417Z" fill="#565A99"/>
<path d="M34.888 94.1617C35.8235 94.5867 35.33 94.5367 36.374 94.2417C36.74 92.9667 36.642 92.6717 37.613 91.8567C38.3755 93.4867 36.6155 93.2017 37.2585 94.9867C38.2895 94.9967 42.107 95.0067 42.771 94.5117C45.333 92.5867 46.518 85.0217 49.398 83.0017L50.218 84.0567L44.668 97.0867C41.8445 97.1417 37.076 97.5317 34.605 96.8467L34.052 96.0367C34.1555 95.8017 34.777 94.3467 34.888 94.1617Z" fill="#534587"/>
<path d="M55.493 67.0116L57.683 66.6716C56.278 70.4866 54.113 75.5216 52.143 79.1466C51.848 77.2716 54.488 68.8466 55.493 67.0116Z" fill="#6493D9"/>
<path d="M68.9579 44.4117C72.8929 43.2217 78.4479 42.5417 82.3279 43.9467C81.7729 44.3617 76.0329 44.2317 74.4579 44.4917C63.3929 47.1667 65.3979 58.3567 66.4879 67.2817C67.7179 77.3867 84.7929 73.9717 91.6979 73.5067L91.9229 82.3217C83.1979 84.7667 70.2979 86.2417 62.2429 81.4767C60.1829 80.2567 58.7479 79.7217 58.0229 77.2817L58.3779 76.9267C59.3029 77.6667 63.3929 81.0417 64.2429 81.3517C72.6179 84.3667 81.9329 83.3167 90.4179 81.5217L90.1579 74.9267C69.5579 77.3117 62.1929 76.2817 64.3979 52.9017C66.5429 48.9417 64.2229 49.1417 68.9579 44.4117Z" fill="#6493D9"/>
<path d="M37.3074 27.3068C37.2554 24.8468 36.8519 17.4167 37.7744 15.6367L48.9629 15.6718C49.1029 20.1268 49.1829 22.7617 48.7379 27.1567C45.9029 27.4067 40.3459 27.2818 37.3074 27.3068Z" fill="#6868E0"/>
<path d="M37.7744 15.6367L48.9629 15.6718C49.1029 20.1268 49.1829 22.7617 48.7379 27.1567C47.0629 24.5467 40.2394 17.8317 37.7744 15.6367Z" fill="#65C6EC"/>
<path d="M37.3895 59.2817C38.3035 60.9917 37.6715 65.9168 38.2005 68.6868C38.1035 70.9518 38.1385 70.9117 37.3895 73.0317C37.132 73.3167 36.835 73.5667 36.543 73.8217C33.177 76.7467 26.7235 75.4817 22.6905 75.1517C22.522 77.6267 22.382 79.0917 22.5735 81.5967C24.281 82.2167 32.139 82.9118 35.0535 83.5568L34.7315 83.8718C28.507 84.2318 27.33 84.1018 21.1175 82.8668C21.0165 80.2918 21.2515 76.3168 21.339 73.6268C37.368 74.1118 36.7065 74.9967 37.3895 59.2817Z" fill="#534587"/>
</svg>
